<mxfile host="app.diagrams.net" modified="2023-06-08T01:58:46.123Z" agent="Mozilla/5.0 (Windows NT 10.0; Win64; x64) AppleWebKit/537.36 (KHTML, like Gecko) Chrome/114.0.0.0 Safari/537.36 Edg/114.0.1823.37" version="21.2.9" etag="40jN66gt6-9PiqbbnEOl" type="github">
  <diagram name="第 1 页" id="YGqdx-ywCXScnCHZmo5j">
    <mxGraphModel>
      <root>
        <mxCell id="0" />
        <mxCell id="1" parent="0" />
      </root>
    </mxGraphModel>
  </diagram>
</mxfile>
